<mxfile host="Electron" agent="Mozilla/5.0 (Macintosh; Intel Mac OS X 10_15_7) AppleWebKit/537.36 (KHTML, like Gecko) draw.io/27.0.5 Chrome/134.0.6998.205 Electron/35.3.0 Safari/537.36" version="27.0.5">
  <diagram name="Detailed Component Diagram" id="UOMEcKkBaRCBa_v5HqTt">
    <mxGraphModel dx="946" dy="679" grid="1" gridSize="10" guides="1" tooltips="1" connect="1" arrows="1" fold="1" page="1" pageScale="1" pageWidth="1169" pageHeight="827" math="0" shadow="0">
      <root>
        <mxCell id="0" />
        <mxCell id="1" parent="0" />
        <mxCell id="z8vrLFh6_ShdsD8akpoV-188" value="nginx" style="shape=folder;fontStyle=1;spacingTop=10;tabWidth=40;tabHeight=14;tabPosition=left;html=1;whiteSpace=wrap;align=left;verticalAlign=top;" parent="1" vertex="1">
          <mxGeometry x="600" y="69" width="360" height="250" as="geometry" />
        </mxCell>
        <mxCell id="z8vrLFh6_ShdsD8akpoV-189" value="trainer" style="shape=folder;fontStyle=1;spacingTop=10;tabWidth=40;tabHeight=14;tabPosition=left;html=1;whiteSpace=wrap;align=left;verticalAlign=top;" parent="1" vertex="1">
          <mxGeometry x="440" y="580" width="260" height="210" as="geometry" />
        </mxCell>
        <mxCell id="z8vrLFh6_ShdsD8akpoV-190" value="streamlit app" style="shape=folder;fontStyle=1;spacingTop=10;tabWidth=40;tabHeight=14;tabPosition=left;html=1;whiteSpace=wrap;align=left;verticalAlign=top;" parent="1" vertex="1">
          <mxGeometry x="115" y="69" width="250" height="260" as="geometry" />
        </mxCell>
        <mxCell id="z8vrLFh6_ShdsD8akpoV-205" value="writes" style="edgeStyle=orthogonalEdgeStyle;rounded=0;orthogonalLoop=1;jettySize=auto;html=1;exitX=0.5;exitY=1;exitDx=0;exitDy=0;curved=1;entryX=0.5;entryY=0;entryDx=0;entryDy=0;entryPerimeter=0;" parent="1" source="z8vrLFh6_ShdsD8akpoV-191" target="z8vrLFh6_ShdsD8akpoV-204" edge="1">
          <mxGeometry relative="1" as="geometry">
            <Array as="points">
              <mxPoint x="750" y="330" />
              <mxPoint x="735" y="330" />
            </Array>
          </mxGeometry>
        </mxCell>
        <mxCell id="z8vrLFh6_ShdsD8akpoV-191" value="nginx Webserver&lt;div&gt;&amp;nbsp;(Security Gateay)&lt;/div&gt;" style="html=1;dropTarget=0;whiteSpace=wrap;" parent="1" vertex="1">
          <mxGeometry x="660" y="109" width="180" height="90" as="geometry" />
        </mxCell>
        <mxCell id="z8vrLFh6_ShdsD8akpoV-192" value="" style="shape=module;jettyWidth=8;jettyHeight=4;" parent="z8vrLFh6_ShdsD8akpoV-191" vertex="1">
          <mxGeometry x="1" width="20" height="20" relative="1" as="geometry">
            <mxPoint x="-27" y="7" as="offset" />
          </mxGeometry>
        </mxCell>
        <mxCell id="z8vrLFh6_ShdsD8akpoV-214" value="generates&lt;div&gt;malicious&lt;/div&gt;&lt;div&gt;traffic&lt;/div&gt;" style="edgeStyle=orthogonalEdgeStyle;rounded=0;orthogonalLoop=1;jettySize=auto;html=1;curved=1;" parent="1" source="z8vrLFh6_ShdsD8akpoV-193" target="z8vrLFh6_ShdsD8akpoV-191" edge="1">
          <mxGeometry x="0.2946" y="-10" relative="1" as="geometry">
            <Array as="points">
              <mxPoint x="480" y="610" />
              <mxPoint x="480" y="154" />
            </Array>
            <mxPoint as="offset" />
          </mxGeometry>
        </mxCell>
        <mxCell id="z8vrLFh6_ShdsD8akpoV-193" value="traffic-malicious" style="shape=folder;fontStyle=1;spacingTop=10;tabWidth=40;tabHeight=14;tabPosition=left;html=1;whiteSpace=wrap;align=left;verticalAlign=top;" parent="1" vertex="1">
          <mxGeometry x="115" y="587" width="105" height="83" as="geometry" />
        </mxCell>
        <mxCell id="z8vrLFh6_ShdsD8akpoV-213" value="generates&amp;nbsp;&lt;div&gt;normal&amp;nbsp;&lt;/div&gt;&lt;div&gt;traffic&lt;/div&gt;" style="edgeStyle=orthogonalEdgeStyle;rounded=0;orthogonalLoop=1;jettySize=auto;html=1;entryX=0;entryY=0.5;entryDx=0;entryDy=0;curved=1;" parent="1" source="z8vrLFh6_ShdsD8akpoV-194" target="z8vrLFh6_ShdsD8akpoV-191" edge="1">
          <mxGeometry x="0.2903" y="-40" relative="1" as="geometry">
            <mxPoint as="offset" />
          </mxGeometry>
        </mxCell>
        <mxCell id="z8vrLFh6_ShdsD8akpoV-194" value="traffic-normal" style="shape=folder;fontStyle=1;spacingTop=10;tabWidth=40;tabHeight=14;tabPosition=left;html=1;whiteSpace=wrap;align=left;verticalAlign=top;" parent="1" vertex="1">
          <mxGeometry x="115" y="480" width="105" height="80" as="geometry" />
        </mxCell>
        <mxCell id="z8vrLFh6_ShdsD8akpoV-212" value="reloads" style="edgeStyle=orthogonalEdgeStyle;rounded=0;orthogonalLoop=1;jettySize=auto;html=1;curved=1;" parent="1" source="z8vrLFh6_ShdsD8akpoV-195" target="z8vrLFh6_ShdsD8akpoV-191" edge="1">
          <mxGeometry relative="1" as="geometry" />
        </mxCell>
        <mxCell id="z8vrLFh6_ShdsD8akpoV-195" value="reload-watcher" style="shape=module;align=left;spacingLeft=20;align=center;verticalAlign=top;whiteSpace=wrap;html=1;" parent="1" vertex="1">
          <mxGeometry x="620" y="249" width="100" height="50" as="geometry" />
        </mxCell>
        <mxCell id="z8vrLFh6_ShdsD8akpoV-196" value="&lt;p style=&quot;margin:0px;margin-top:4px;text-align:center;text-decoration:underline;&quot;&gt;&lt;b&gt;custom_rules.conf&lt;/b&gt;&lt;/p&gt;&lt;hr size=&quot;1&quot; style=&quot;border-style:solid;&quot;&gt;&lt;p style=&quot;margin:0px;margin-left:8px;&quot;&gt;location = /hidden&lt;/p&gt;&lt;p style=&quot;margin:0px;margin-left:8px;&quot;&gt;location = /wp-login&lt;br&gt;location = ...&lt;/p&gt;" style="verticalAlign=top;align=left;overflow=fill;html=1;whiteSpace=wrap;" parent="1" vertex="1">
          <mxGeometry x="790" y="209" width="160" height="90" as="geometry" />
        </mxCell>
        <mxCell id="z8vrLFh6_ShdsD8akpoV-209" value="reads logdata" style="edgeStyle=orthogonalEdgeStyle;rounded=0;orthogonalLoop=1;jettySize=auto;html=1;curved=1;exitX=0.75;exitY=0;exitDx=0;exitDy=0;" parent="1" source="z8vrLFh6_ShdsD8akpoV-197" target="z8vrLFh6_ShdsD8akpoV-204" edge="1">
          <mxGeometry x="-0.5873" y="-10" relative="1" as="geometry">
            <Array as="points">
              <mxPoint x="545" y="570" />
              <mxPoint x="720" y="570" />
            </Array>
            <mxPoint x="-1" as="offset" />
          </mxGeometry>
        </mxCell>
        <mxCell id="z8vrLFh6_ShdsD8akpoV-215" value="writes" style="edgeStyle=orthogonalEdgeStyle;rounded=0;orthogonalLoop=1;jettySize=auto;html=1;exitX=0.5;exitY=1;exitDx=0;exitDy=0;entryX=0.5;entryY=0;entryDx=0;entryDy=0;curved=1;" parent="1" source="z8vrLFh6_ShdsD8akpoV-197" target="z8vrLFh6_ShdsD8akpoV-198" edge="1">
          <mxGeometry relative="1" as="geometry" />
        </mxCell>
        <mxCell id="z8vrLFh6_ShdsD8akpoV-197" value="feature extractor" style="shape=module;align=left;spacingLeft=20;align=center;verticalAlign=top;whiteSpace=wrap;html=1;" parent="1" vertex="1">
          <mxGeometry x="460" y="620" width="100" height="50" as="geometry" />
        </mxCell>
        <mxCell id="z8vrLFh6_ShdsD8akpoV-216" value="writes" style="edgeStyle=orthogonalEdgeStyle;rounded=0;orthogonalLoop=1;jettySize=auto;html=1;exitX=1;exitY=0.5;exitDx=0;exitDy=0;entryX=0.5;entryY=1;entryDx=0;entryDy=0;curved=1;" parent="1" source="z8vrLFh6_ShdsD8akpoV-198" target="z8vrLFh6_ShdsD8akpoV-199" edge="1">
          <mxGeometry relative="1" as="geometry" />
        </mxCell>
        <mxCell id="z8vrLFh6_ShdsD8akpoV-198" value="normalizer" style="shape=module;align=left;spacingLeft=20;align=center;verticalAlign=top;whiteSpace=wrap;html=1;" parent="1" vertex="1">
          <mxGeometry x="500" y="710" width="100" height="50" as="geometry" />
        </mxCell>
        <mxCell id="z8vrLFh6_ShdsD8akpoV-199" value="auto-encoder" style="shape=module;align=left;spacingLeft=20;align=center;verticalAlign=top;whiteSpace=wrap;html=1;" parent="1" vertex="1">
          <mxGeometry x="580" y="613" width="100" height="50" as="geometry" />
        </mxCell>
        <mxCell id="z8vrLFh6_ShdsD8akpoV-200" value="model" style="shape=folder;fontStyle=1;spacingTop=10;tabWidth=40;tabHeight=14;tabPosition=left;html=1;whiteSpace=wrap;align=left;verticalAlign=top;" parent="1" vertex="1">
          <mxGeometry x="500" y="460" width="100" height="90" as="geometry" />
        </mxCell>
        <mxCell id="z8vrLFh6_ShdsD8akpoV-201" value="writes model" style="edgeStyle=orthogonalEdgeStyle;rounded=0;orthogonalLoop=1;jettySize=auto;html=1;exitX=0.25;exitY=0;exitDx=0;exitDy=0;elbow=vertical;curved=1;" parent="1" source="z8vrLFh6_ShdsD8akpoV-199" target="z8vrLFh6_ShdsD8akpoV-200" edge="1">
          <mxGeometry x="0.2896" y="10" relative="1" as="geometry">
            <Array as="points">
              <mxPoint x="605" y="580" />
              <mxPoint x="640" y="580" />
              <mxPoint x="640" y="505" />
            </Array>
            <mxPoint as="offset" />
          </mxGeometry>
        </mxCell>
        <mxCell id="z8vrLFh6_ShdsD8akpoV-204" value="access.log" style="shape=cylinder3;whiteSpace=wrap;html=1;boundedLbl=1;backgroundOutline=1;size=15;" parent="1" vertex="1">
          <mxGeometry x="670" y="400" width="130" height="60" as="geometry" />
        </mxCell>
        <mxCell id="z8vrLFh6_ShdsD8akpoV-210" value="manages" style="edgeStyle=orthogonalEdgeStyle;rounded=0;orthogonalLoop=1;jettySize=auto;html=1;exitX=1;exitY=0.5;exitDx=0;exitDy=0;curved=1;" parent="1" source="z8vrLFh6_ShdsD8akpoV-206" target="z8vrLFh6_ShdsD8akpoV-196" edge="1">
          <mxGeometry relative="1" as="geometry">
            <Array as="points">
              <mxPoint x="250" y="350" />
              <mxPoint x="870" y="350" />
            </Array>
          </mxGeometry>
        </mxCell>
        <mxCell id="z8vrLFh6_ShdsD8akpoV-217" value="derive&amp;nbsp;&lt;div&gt;policies&lt;/div&gt;" style="edgeStyle=orthogonalEdgeStyle;rounded=0;orthogonalLoop=1;jettySize=auto;html=1;exitX=0.75;exitY=1;exitDx=0;exitDy=0;curved=1;" parent="1" source="z8vrLFh6_ShdsD8akpoV-206" target="z8vrLFh6_ShdsD8akpoV-200" edge="1">
          <mxGeometry x="-0.4842" y="10" relative="1" as="geometry">
            <Array as="points">
              <mxPoint x="260" y="505" />
            </Array>
            <mxPoint as="offset" />
          </mxGeometry>
        </mxCell>
        <mxCell id="z8vrLFh6_ShdsD8akpoV-206" value="policy generator" style="shape=module;align=left;spacingLeft=20;align=center;verticalAlign=top;whiteSpace=wrap;html=1;" parent="1" vertex="1">
          <mxGeometry x="185" y="259" width="100" height="50" as="geometry" />
        </mxCell>
        <mxCell id="z8vrLFh6_ShdsD8akpoV-207" value="logfile viewer" style="shape=module;align=left;spacingLeft=20;align=center;verticalAlign=top;whiteSpace=wrap;html=1;" parent="1" vertex="1">
          <mxGeometry x="135" y="109" width="100" height="50" as="geometry" />
        </mxCell>
        <mxCell id="z8vrLFh6_ShdsD8akpoV-208" value="reads" style="edgeStyle=orthogonalEdgeStyle;rounded=0;orthogonalLoop=1;jettySize=auto;html=1;exitX=1;exitY=0.5;exitDx=0;exitDy=0;curved=1;" parent="1" source="z8vrLFh6_ShdsD8akpoV-207" target="z8vrLFh6_ShdsD8akpoV-204" edge="1">
          <mxGeometry x="-0.7722" relative="1" as="geometry">
            <Array as="points">
              <mxPoint x="235" y="140" />
              <mxPoint x="400" y="140" />
              <mxPoint x="400" y="430" />
            </Array>
            <mxPoint as="offset" />
          </mxGeometry>
        </mxCell>
        <mxCell id="z8vrLFh6_ShdsD8akpoV-218" value="identify&lt;div&gt;anomalies&lt;/div&gt;" style="edgeStyle=orthogonalEdgeStyle;rounded=0;orthogonalLoop=1;jettySize=auto;html=1;curved=1;exitX=0.658;exitY=0.92;exitDx=0;exitDy=0;exitPerimeter=0;entryX=0;entryY=0;entryDx=0;entryDy=52;entryPerimeter=0;" parent="1" source="z8vrLFh6_ShdsD8akpoV-211" target="z8vrLFh6_ShdsD8akpoV-200" edge="1">
          <mxGeometry x="-0.485" y="40" relative="1" as="geometry">
            <Array as="points">
              <mxPoint x="350" y="306" />
              <mxPoint x="350" y="512" />
            </Array>
            <mxPoint x="-1" as="offset" />
          </mxGeometry>
        </mxCell>
        <mxCell id="z8vrLFh6_ShdsD8akpoV-211" value="anomaly visualizer" style="shape=module;align=left;spacingLeft=20;align=center;verticalAlign=top;whiteSpace=wrap;html=1;" parent="1" vertex="1">
          <mxGeometry x="255" y="159" width="100" height="50" as="geometry" />
        </mxCell>
      </root>
    </mxGraphModel>
  </diagram>
</mxfile>
